<mxfile host="app.diagrams.net" modified="2024-06-04T23:19:10.527Z" agent="Mozilla/5.0 (Macintosh; Intel Mac OS X 10_15_7) AppleWebKit/537.36 (KHTML, like Gecko) Chrome/94.0.4606.54 Safari/537.36" etag="EUmD3gQh1f8pAHx9S3n_" version="24.4.13" type="device">
  <diagram name="Page-1" id="av3lntkcvqlPu5hgfJqM">
    <mxGraphModel dx="1137" dy="881" grid="1" gridSize="10" guides="1" tooltips="1" connect="1" arrows="1" fold="1" page="1" pageScale="1" pageWidth="827" pageHeight="1169" math="1" shadow="0">
      <root>
        <mxCell id="0" />
        <mxCell id="1" parent="0" />
        <mxCell id="QpGtNuyBWYVd5fxDIimz-1" value="Observed Sample&lt;div&gt;$$&lt;span style=&quot;background-color: initial;&quot;&gt;&amp;nbsp;x_1$$&lt;/span&gt;&lt;/div&gt;" style="text;strokeColor=none;align=center;fillColor=none;html=1;verticalAlign=middle;whiteSpace=wrap;rounded=0;" vertex="1" parent="1">
          <mxGeometry x="380" y="440" width="160" height="30" as="geometry" />
        </mxCell>
      </root>
    </mxGraphModel>
  </diagram>
</mxfile>
